<?xml version="1.0" encoding="UTF-8"?>
<svg version="1.1" xmlns="http://www.w3.org/2000/svg" width="24" height="24">
<path d="M0 0 C7.92 0 15.84 0 24 0 C24 7.92 24 15.84 24 24 C16.08 24 8.16 24 0 24 C0 16.08 0 8.16 0 0 Z " fill="#99A1A3" transform="translate(0,0)"/>
<path d="M0 0 C7.92 0 15.84 0 24 0 C24 7.92 24 15.84 24 24 C16.08 24 8.16 24 0 24 C0 16.08 0 8.16 0 0 Z M2 2 C2 5.3 2 8.6 2 12 C3.96822886 13.96822886 7.34808709 13.66248381 10 14 C10.268125 14.928125 10.53625 15.85625 10.8125 16.8125 C12.15810214 20.52699097 12.15810214 20.52699097 15 23 C17.54230847 23.41679297 17.54230847 23.41679297 20 23 C22.21370051 21.21342243 22.21370051 21.21342243 22.1953125 18.8359375 C22.17210938 18.02382813 22.14890625 17.21171875 22.125 16.375 C22.10695313 15.55773438 22.08890625 14.74046875 22.0703125 13.8984375 C22.04710938 13.27195312 22.02390625 12.64546875 22 12 C20.68 12 19.36 12 18 12 C18.33 11.34 18.66 10.68 19 10 C19.99 10 20.98 10 22 10 C22 7.36 22 4.72 22 2 C15.4 2 8.8 2 2 2 Z " fill="#1F2428" transform="translate(0,0)"/>
<path d="M0 0 C0.33 0 0.66 0 1 0 C1 7.92 1 15.84 1 24 C-6.92 24 -14.84 24 -23 24 C-23 21.03 -23 18.06 -23 15 C-20.36 15 -17.72 15 -15 15 C-15.33 16.32 -15.66 17.64 -16 19 C-16.66 19 -17.32 19 -18 19 C-18.33 20.32 -18.66 21.64 -19 23 C-17.35 23 -15.7 23 -14 23 C-14 19.7 -14 16.4 -14 13 C-12.68 13.66 -11.36 14.32 -10 15 C-10.66 15 -11.32 15 -12 15 C-10.92598892 17.91517292 -10.22189824 19.77810176 -8 22 C-5.41645782 22.16687448 -5.41645782 22.16687448 -3 22 C-2.01 18.535 -2.01 18.535 -1 15 C-1.66 14.67 -2.32 14.34 -3 14 C-2.01 14 -1.02 14 0 14 C0 9.38 0 4.76 0 0 Z " fill="#050D14" transform="translate(23,0)"/>
<path d="M0 0 C9.35862069 -0.31724138 9.35862069 -0.31724138 13 2 C13.875 4.5 13.875 4.5 14 7 C13.67 7.66 13.34 8.32 13 9 C8.71230214 10.29930238 4.43489655 10.07516774 0 10 C0 6.7 0 3.4 0 0 Z " fill="#787F82" transform="translate(2,2)"/>
<path d="M0 0 C3.63 0 7.26 0 11 0 C11.125 2.875 11.125 2.875 11 6 C9 8 9 8 6.625 8.375 C3.16970079 7.88138583 2.07081812 6.76109083 0 4 C0 2.68 0 1.36 0 0 Z " fill="#D73C39" transform="translate(11,15)"/>
<path d="M0 0 C0.33 0 0.66 0 1 0 C1 7.92 1 15.84 1 24 C-1.97 24 -4.94 24 -8 24 C-8 23.67 -8 23.34 -8 23 C-6.02 22.34 -4.04 21.68 -2 21 C-1.67 19.02 -1.34 17.04 -1 15 C-1.66 14.67 -2.32 14.34 -3 14 C-2.01 14 -1.02 14 0 14 C0 9.38 0 4.76 0 0 Z " fill="#030301" transform="translate(23,0)"/>
<path d="M0 0 C1.32 0.66 2.64 1.32 4 2 C3.34 2 2.68 2 2 2 C3.19899698 5.0831351 4.47700477 8.06279492 6 11 C3.69 11 1.38 11 -1 11 C-0.67 7.37 -0.34 3.74 0 0 Z " fill="#100D0C" transform="translate(9,13)"/>
<path d="M0 0 C1.65 0 3.3 0 5 0 C5 2.97 5 5.94 5 9 C3.35 9 1.7 9 0 9 C0 7.35 0 5.7 0 4 C0.99 4 1.98 4 3 4 C3.33 3.01 3.66 2.02 4 1 C2.68 1.33 1.36 1.66 0 2 C0 1.34 0 0.68 0 0 Z " fill="#2773B1" transform="translate(4,14)"/>
<path d="M0 0 C3.63 0 7.26 0 11 0 C11.125 2.875 11.125 2.875 11 6 C9 8 9 8 6.375 8.125 C5.59125 8.08375 4.8075 8.0425 4 8 C5.3125 6.5 5.3125 6.5 7 5 C7.99 5 8.98 5 10 5 C10 4.01 10 3.02 10 2 C7.03 2 4.06 2 1 2 C0.67 2.66 0.34 3.32 0 4 C0 2.68 0 1.36 0 0 Z " fill="#68451C" transform="translate(11,15)"/>
<path d="M0 0 C-0.33 1.32 -0.66 2.64 -1 4 C-3.97 4 -6.94 4 -10 4 C-9.67 3.01 -9.34 2.02 -9 1 C-6.04335481 -0.4783226 -3.25770263 -0.06032783 0 0 Z " fill="#998948" transform="translate(22,12)"/>
<path d="M0 0 C1.32 0.66 2.64 1.32 4 2 C3.67 3.32 3.34 4.64 3 6 C1.35 5.67 -0.3 5.34 -2 5 C-1.125 1.125 -1.125 1.125 0 0 Z " fill="#ACACAF" transform="translate(11,4)"/>
<path d="M0 0 C0.33 0 0.66 0 1 0 C1 3.96 1 7.92 1 12 C0.67 11.34 0.34 10.68 0 10 C-1.32 10 -2.64 10 -4 10 C-3.67 9.01 -3.34 8.02 -3 7 C-2.34 7 -1.68 7 -1 7 C-0.67 4.69 -0.34 2.38 0 0 Z " fill="#505045" transform="translate(22,2)"/>
<path d="M0 0 C0 0.66 0 1.32 0 2 C-4.25566547 3.16063604 -7.6835078 2.76173392 -12 2 C-12 1.67 -12 1.34 -12 1 C-7.95858806 0.36605303 -4.0934693 -0.12404452 0 0 Z " fill="#909699" transform="translate(15,11)"/>
</svg>
